<?xml version="1.0" encoding="utf-8"?>
<!-- Generator: Adobe Illustrator 22.0.1, SVG Export Plug-In . SVG Version: 6.00 Build 0)  -->
<svg version="1.1" xmlns="http://www.w3.org/2000/svg" xmlns:xlink="http://www.w3.org/1999/xlink" x="0px" y="0px"
	 viewBox="0 0 396 252" style="enable-background:new 0 0 396 252;" xml:space="preserve">
<style type="text/css">
	.st0{fill:#77D7FD;}
	.st1{clip-path:url(#SVGID_2_);fill:#20C0ED;}
	.st2{fill:#86DDFD;}
	.st3{fill:#9DE9FE;}
	.st4{clip-path:url(#SVGID_4_);fill:#B8ECFE;}
	.st5{fill:#1174BA;}
	.st6{fill:#93C3E6;}
	.st7{fill:none;stroke:#1174BA;stroke-width:0.75;stroke-miterlimit:10;}
	.st8{fill:#666666;}
	.st9{fill:none;stroke:#666666;stroke-width:0.75;stroke-miterlimit:10;}
	.st10{fill:#BFBFBF;}
	.st11{clip-path:url(#SVGID_6_);fill:#20C0ED;}
	.st12{fill:#1CA7CF;}
	.st13{fill:#808080;}
	.st14{fill:#999999;}
	.st15{fill:#616161;}
</style>
<g id="Layer_1">
	<path class="st0" d="M241.5,145.3c0,35-13.7,63.8-41.6,63.8c-4.8,0-9.5-0.9-14-2.5c0.1,0.4,0.1,0.8,0.2,1.2c1,0.5,1.7,1.1,2.2,1.7
		c0.6,0.6,2.2,2.3,2.4,4.7c0.2,5.1-6.8,8.8-7.8,9.4c-4.3,2.2-5.4,0.9-12.9,3.1c-6.3,1.9-6.8,3.2-10.2,3.1c-1.5-0.1-7.3-0.5-10.1-5.5
		c-1.9-3.3-1.8-7.5,0-10.5c0.6-1.1,1.9-2.7,6.2-4.7c0.9-0.4,1.7-0.8,2.6-1.1c-0.3-0.2-0.7-0.3-1-0.5c-4.9-2.5-14-7.4-21.1-17.6
		c-3.3-4.8-7.8-11.3-5.8-18.3c1.4-5,5.6-8.3,7-9.4c0.6-0.4,3.8-2.7,8.6-3.5c1.4-0.2,2.8-0.3,4.2-0.3c-0.7-4.1-1-8.4-1-12.8
		c0-35,22.7-63.3,50.6-63.3C227.8,82.5,241.5,110.4,241.5,145.3z"/>
	<g>
		<defs>
			<path id="SVGID_1_" d="M136.4,190.7c0,44.3,16.9,81.7,61.2,81.7s74.1-36.3,80.1-80.2c4.1-29.9-50-82.2-76.9-82.2
				C170.9,110,136.4,146.4,136.4,190.7z"/>
		</defs>
		<clipPath id="SVGID_2_">
			<use xlink:href="#SVGID_1_"  style="overflow:visible;"/>
		</clipPath>
		<path class="st1" d="M150.6,146c0,35,21.8,63.3,48.8,63.3c4.7,0,9.2-0.9,13.5-2.5c-0.1,0.4-0.1,0.8-0.2,1.2
			c-0.9,0.5-1.6,1.1-2.2,1.7c-0.6,0.6-2.1,2.3-2.3,4.7c-0.2,5.1,6.5,8.8,7.5,9.4c4.1,2.2,5.2,0.9,12.4,3.1c6.1,1.9,6.5,3.2,9.8,3.1
			c1.4-0.1,7.1-0.5,9.8-5.5c1.8-3.3,1.8-7.5,0-10.5c-0.6-1.1-1.8-2.7-6-4.7c-0.8-0.4-1.7-0.8-2.5-1.1c0.3-0.2,0.6-0.3,1-0.5
			c4.7-2.5,13.5-7.4,20.3-17.6c3.2-4.8,7.5-11.3,5.6-18.3c-1.4-5-5.4-8.3-6.8-9.4c-0.6-0.4-3.7-2.7-8.3-3.5c-1.4-0.2-2.7-0.3-4-0.3
			c0.7-4.1,1-8.4,1-12.8c0-35-21.8-63.3-48.8-63.3C172.5,82.6,150.6,111,150.6,146z"/>
	</g>
	<path class="st0" d="M228.3,78.2c-1.8,2.9-5.2,4.8-10.3,8.6c-8.8,6.8-18,7.8-23.7,8.4c-5.1,0.6-13.3,1.4-22.5-2.3
		c-3.6-1.4-6.4-3.2-8.3-4.5c-0.2-3-0.4-6-0.6-9c0.3-5.9,0.5-11.9,0.8-17.8c0-0.5,0-1,0.1-1.5c-1.3-2.3-3.7-7.2-3.7-13.8
		c0-4.6,1.2-8.2,2.2-10.4c1.7-0.3,4.1-0.4,6.8,0c2.8,0.4,5.2,1.3,7,2.2c3.5-2.7,7.7-4.6,12.6-5.4c4.8-0.7,9.2-0.2,13.3,1.2
		c1.4-1.3,3.3-2.8,5.7-3.9c2.5-1.2,4.8-1.7,6.5-2c1.6,1.8,3.8,4.9,5.2,9.3c1.8,5.7,1.3,10.7,0.8,13.4c0.2,0.5,0.4,0.9,0.6,1.4
		c0.3,1.1,0.7,2.3,1,3.5C223.9,62.9,226.2,71.5,228.3,78.2z"/>
	<path class="st2" d="M217.4,63.6c1.6,10.5-3.7,20-11.9,21.2c-3.5,0.5-6.9-0.5-9.8-2.6c-2.1,2.9-5.1,4.9-8.5,5.5
		C179,88.9,171,81.5,169.4,71c-1.6-10.5,3.7-20,11.9-21.2c3.5-0.5,6.9,0.5,9.8,2.6c2.1-2.9,5.1-4.9,8.5-5.5
		C207.9,45.7,215.8,53.2,217.4,63.6z"/>
	<path class="st3" d="M206.3,71.7c-0.2,2.6-0.8,6-2.4,9.8c-0.8,1.9-1.7,3.6-2.6,5c-1.6,0.6-3.1,1.2-4.7,1.9c-1.7-0.1-3.3-0.2-5-0.4
		c-1.3-1.1-2.6-2.4-4-4c-2.6-3.1-4.2-6.2-5.2-8.6c1.1-1,2.5-2.2,4.3-3.3c1.1-0.7,2.2-1.2,3.2-1.7c0,0,0,0,0,0c1-0.6,2.2-1,3.4-1.2
		c0,0,0,0,0,0c0,0,0,0,0,0c0.1,0,0.1,0,0.2,0c0.1,0,0.1,0,0.2,0c0,0,0,0,0,0c0,0,0,0,0,0c1.3-0.2,2.5-0.1,3.6,0.1c0,0,0,0,0,0
		c1.1,0.1,2.3,0.3,3.5,0.6C203.3,70.3,205,71.1,206.3,71.7z"/>
	<g>
		<defs>
			
				<ellipse id="SVGID_3_" transform="matrix(0.9884 -0.1521 0.1521 0.9884 -8.3318 30.2853)" cx="193.8" cy="69.6" rx="14.9" ry="6.7"/>
		</defs>
		<clipPath id="SVGID_4_">
			<use xlink:href="#SVGID_3_"  style="overflow:visible;"/>
		</clipPath>
		<path class="st4" d="M206.3,71.7c-0.2,2.6-0.8,6-2.4,9.8c-0.8,1.9-1.7,3.6-2.6,5c-1.6,0.6-3.1,1.2-4.7,1.9c-1.7-0.1-3.3-0.2-5-0.4
			c-1.3-1.1-2.6-2.4-4-4c-2.6-3.1-4.2-6.2-5.2-8.6c1.1-1,2.5-2.2,4.3-3.3c1.1-0.7,2.2-1.2,3.2-1.7c0,0,0,0,0,0c1-0.6,2.2-1,3.4-1.2
			c0,0,0,0,0,0c0,0,0,0,0,0c0.1,0,0.1,0,0.2,0c0.1,0,0.1,0,0.2,0c0,0,0,0,0,0c0,0,0,0,0,0c1.3-0.2,2.5-0.1,3.6,0.1c0,0,0,0,0,0
			c1.1,0.1,2.3,0.3,3.5,0.6C203.3,70.3,205,71.1,206.3,71.7z"/>
	</g>
	<ellipse transform="matrix(0.9884 -0.1521 0.1521 0.9884 -8.8364 30.403)" class="st5" cx="194.3" cy="73" rx="4" ry="1.9"/>
	<ellipse transform="matrix(0.143 -0.9897 0.9897 0.143 96.763 255.731)" class="st6" cx="196.1" cy="72" rx="0.5" ry="0.9"/>
	<path class="st7" d="M200.8,81.4c-1.8-1.3-2.7-1.6-4.9-1.1"/>
	<path class="st7" d="M192,83.4c1-2,1.7-2.6,3.9-3.1"/>
	<ellipse transform="matrix(0.9681 -0.2504 0.2504 0.9681 -11.9703 47.7785)" class="st8" cx="181.8" cy="70.9" rx="1.6" ry="2.4"/>
	
		<ellipse transform="matrix(0.9986 -5.229600e-02 5.229600e-02 0.9986 -3.2363 10.8442)" class="st8" cx="205.6" cy="67.3" rx="1.6" ry="2.4"/>
	<path class="st9" d="M177.1,68.4c0.9-2,1.6-2.7,3.7-3.3"/>
	<path class="st9" d="M209,62.1c-1.5-1.7-2.3-2.1-4.6-2.1"/>
	<path class="st3" d="M171.5,42.4c-0.6-0.5-1.8-1.3-3.4-1.6c-1.2-0.3-2.3-0.2-2.9-0.1c-0.5,1.5-1.2,4.6,0.1,7.7
		c0.2,0.5,0.5,1,0.8,1.5C167.8,47.4,169.7,44.9,171.5,42.4z"/>
	<path class="st3" d="M207.2,36.9c0.4-0.6,1.3-1.7,2.8-2.6c1.1-0.6,2.1-0.9,2.8-1c0.9,1.3,2.5,4,2.2,7.4c0,0.6-0.1,1.1-0.3,1.6
		C212.2,40.6,209.7,38.8,207.2,36.9z"/>
	<circle class="st10" cx="205.7" cy="68.5" r="0.7"/>
	<circle class="st10" cx="182.1" cy="72" r="0.7"/>
	<g>
		<defs>
			<path id="SVGID_5_" d="M265.2,190.7c0,44.3-17.5,81.7-63.5,81.7s-83.1-35.9-83.1-80.2s50.5-86.2,79.1-87
				C217.6,104.6,265.2,146.4,265.2,190.7z"/>
		</defs>
		<clipPath id="SVGID_6_">
			<use xlink:href="#SVGID_5_"  style="overflow:visible;"/>
		</clipPath>
		<path class="st11" d="M244.8,145.8c5.3,34.6-17,63.3-44.9,63.3c-4.8,0-9.5-0.9-14-2.5c0.1,0.4,0.1,0.8,0.2,1.2
			c1,0.5,1.7,1.1,2.2,1.7c0.6,0.6,2.2,2.3,2.4,4.7c0.2,5.1-6.8,8.8-7.8,9.4c-4.3,2.2-5.4,0.9-12.9,3.1c-6.3,1.9-6.8,3.2-10.2,3.1
			c-1.5-0.1-7.3-0.5-10.1-5.5c-1.9-3.3-1.8-7.5,0-10.5c0.6-1.1,1.9-2.7,6.2-4.7c0.9-0.4,1.7-0.8,2.6-1.1c-0.3-0.2-0.7-0.3-1-0.5
			c-4.9-2.5-14-7.4-21.1-17.6c-3.3-4.8-7.8-11.3-5.8-18.3c1.4-5,5.6-8.3,7-9.4c0.6-0.4,3.8-2.7,8.6-3.5c1.4-0.2,2.8-0.3,4.2-0.3
			c-0.7-4.1,1.5-4.6,3.7-12.6c6.5-23.8,26.6-35.4,41.1-36.5C209.9,108.3,242.8,132.6,244.8,145.8z"/>
	</g>
	<path class="st12" d="M150.3,158.6c4.2,1,9.7,2.8,15.6,6.3c3.7,2.2,18.7,11.6,21.1,13.7c-7.8-7.6-20.3-18.6-17.7-30.3
		c-6.7-0.8-13.4-1.5-20.1-2.3c0,1.6,0,3.3,0.2,5.1C149.6,153.8,149.9,156.3,150.3,158.6z"/>
	<path class="st5" d="M162.5,213c-2.8-1-5.8,0-7.4,2.4c-1.5,2.2-1.4,5,0,7.1c2.1,3,6.1,2.5,7.1,2.4c1.8-0.3,3-1.2,3.7-1.7
		C164.8,219.7,163.7,216.3,162.5,213z"/>
	<path class="st12" d="M158.2,208.4c2.6-0.8,6.1-1.7,9.9-2c2.5-0.2,4.7-0.1,6.7,0c-8.1-0.9-16.2-1.7-24.4-2.6
		C152.5,205.3,155.5,206.9,158.2,208.4z"/>
	<path class="st0" d="M218.4,88.8c6,2.1,13.1,5.6,19.8,11.5c5.2,4.5,12.4,10.9,14.3,21.4c0,0.2,0.7,3.8,0.3,7.5
		c-1.5,17.5-23.3,30-26.2,31.7c-0.5,0.8-3.7,5.8-10.2,6.9c-5.8,1-10-1.9-11.3-2.9c-1.8-1.2-3.6-2.5-4.2-4.7c-1-4.1,2.9-7.8,3.5-8.3
		c0.7-0.7,3.5-3.2,7.4-2.7c2.5,0.3,4.1,1.6,4.8,2.2c1.5-2.4,3.8-6,6.2-10.4c6.9-12.6,6.9-16.1,6.7-17.7c-0.4-4.6-2.9-6-5.9-11.2
		C221.1,107.2,218.3,99.8,218.4,88.8z"/>
	<path class="st5" d="M234.2,213c2.8-1,5.8,0,7.4,2.4c1.5,2.2,1.4,5,0,7.1c-2.1,3-6.1,2.5-7.1,2.4c-1.8-0.3-3-1.2-3.7-1.7
		C231.9,219.7,233,216.3,234.2,213z"/>
	<path class="st0" d="M174.4,92.3c-6,2.1-13.1,5.6-19.8,11.5c-5.2,4.5-12.4,10.9-14.3,21.4c0,0.2-0.7,3.8-0.3,7.5
		c1.5,17.5,23.3,30,26.2,31.7c0.5,0.8,3.7,5.8,10.2,6.9c5.8,1,10-1.9,11.3-2.9c1.8-1.2,3.6-2.5,4.2-4.7c1-4.1-2.9-7.8-3.5-8.3
		c-0.7-0.7-3.5-3.2-7.4-2.7c-2.5,0.3-4.1,1.6-4.8,2.2c-1.5-2.4-3.8-6-6.2-10.4c-6.9-12.6-6.9-16.1-6.7-17.7c0.4-4.6,2.9-6,5.9-11.2
		C171.7,110.7,174.5,103.4,174.4,92.3z"/>
</g>
<g id="Layer_2">
	<ellipse transform="matrix(0.8311 -0.556 0.556 0.8311 -53.5267 131.2557)" class="st13" cx="189.4" cy="153.8" rx="7.9" ry="6"/>
	<circle class="st14" cx="183.6" cy="157.1" r="8.4"/>
	<circle class="st13" cx="183.6" cy="157.1" r="6.7"/>
	<ellipse transform="matrix(0.556 -0.8311 0.8311 0.556 -37.5899 236.6644)" class="st13" cx="202.7" cy="153.5" rx="6" ry="7.9"/>
	<circle class="st14" cx="208.5" cy="156.9" r="8.4"/>
	<circle class="st13" cx="208.5" cy="156.9" r="6.7"/>
	<circle class="st15" cx="196.1" cy="150.5" r="3.3"/>
</g>
</svg>
